<svg xmlns="http://www.w3.org/2000/svg" width="1000" height="1000" viewBox="0 0 1000 1000">
  <defs>
    <style>
      .cls-1 {
        fill: none;
        stroke: #000;
        stroke-width: 6px;
      }

      .cls-2 {
        fill-rule: evenodd;
      }
    </style>
  </defs>
  <circle class="cls-1" cx="499" cy="499" r="492"/>
  <path id="FOOD_FORM" data-name="FOOD FORM" class="cls-2" d="M238.6,429.549l-16.4,1.8v8.6h64.2v-8.6l-31.4-1.8v-60.2l40,0.8,3.4,17h9.2v-44.2h-9.2l-3.4,16.2-40,.6v-59.2l56.4,1,5.4,22.6h11l-2-32.8H221v8.6l17.6,2.2v127.4Zm170.2,12.6a63.358,63.358,0,0,0,34.2-9.6q15.4-9.6,24.4-27.3t9-40.9q0-22.6-7.3-39.4t-21.4-26q-14.1-9.2-33.9-9.2a62.493,62.493,0,0,0-33.8,9.5q-15.2,9.5-24,27t-8.8,40.5q0,22.4,7.2,39.4t21.1,26.5q13.9,9.5,33.3,9.5h0Zm3.2-143q14.4,0,24.7,8.2t15.7,22.9q5.4,14.7,5.4,34.1,0,22.2-5.8,37.6t-16.2,23.1a39.881,39.881,0,0,1-24.4,7.7q-14.4,0-24.8-8.4t-15.8-23.4q-5.4-15-5.4-34.2,0-33,12.6-50.3t34-17.3h0Zm145.6,143a63.363,63.363,0,0,0,34.2-9.6q15.4-9.6,24.4-27.3t9-40.9q0-22.6-7.3-39.4t-21.4-26q-14.1-9.2-33.9-9.2a62.491,62.491,0,0,0-33.8,9.5q-15.2,9.5-24,27t-8.8,40.5q0,22.4,7.2,39.4t21.1,26.5q13.9,9.5,33.3,9.5h0Zm3.2-143q14.4,0,24.7,8.2t15.7,22.9q5.4,14.7,5.4,34.1,0,22.2-5.8,37.6t-16.2,23.1a39.883,39.883,0,0,1-24.4,7.7q-14.4,0-24.8-8.4t-15.8-23.4q-5.4-15-5.4-34.2,0-33,12.6-50.3t34-17.3h0Zm103.8,130.4-17.2,1.8v8.6H673q6.8,0,19.2.8,10.8,0.8,15.4.8,21.6,0,38.3-10.1a69.616,69.616,0,0,0,26.1-28.3q9.4-18.2,9.4-42,0-33.6-17.9-52.5t-55.3-18.9q-6,0-17.6.8t-17.8.8H648.6v8.6l16,2.2v127.4Zm16.4,0.6v-129.6q1.8,0,7-.4,8.4-.8,15-0.8,60.8,0,60.8,65.4,0,21.2-7.1,36.2t-19.7,22.8q-12.6,7.8-29,8h-6.8a107.573,107.573,0,0,1-20.2-1.6h0Zm-461.5,239.4-16.4,1.8v8.6h64.2v-8.6l-31.4-1.8v-60.2l40,0.8,3.4,17h9.2v-44.2h-9.2l-3.4,16.2-40,.6v-59.2l56.4,1,5.4,22.6h11l-2-32.8H201.9v8.6l17.6,2.2v127.4Zm170.2,12.6a63.363,63.363,0,0,0,34.2-9.6q15.4-9.6,24.4-27.3t9-40.9q0-22.6-7.3-39.4t-21.4-26q-14.1-9.2-33.9-9.2a62.491,62.491,0,0,0-33.8,9.5q-15.2,9.5-24,27t-8.8,40.5q0,22.4,7.2,39.4t21.1,26.5q13.9,9.5,33.3,9.5h0Zm3.2-143q14.4,0,24.7,8.2t15.7,22.9q5.4,14.7,5.4,34.1,0,22.2-5.8,37.6t-16.2,23.1a39.883,39.883,0,0,1-24.4,7.7q-14.4,0-24.8-8.4t-15.8-23.4q-5.4-15-5.4-34.2,0-33,12.6-50.3t34-17.3h0Zm86.6,140.8h54.2v-8.6l-20.6-1.8v-55.8q3.8,0.2,28.2.2,5.2,3,10.5,11.8t13.5,25.4q7.6,15.2,11.8,22t7.4,6.8h23.4v-8.4l-8.4-2.2q-3.2-.6-7.3-6.7t-10.9-18.3q-7.8-14-13.1-21.9t-10.5-11.3a38.942,38.942,0,0,0,21.9-15.8,45.583,45.583,0,0,0,8.1-26.4q0-20-12.2-29.6t-40.8-9.6q-4.6,0-14.2.8-10,.8-15.4.8H480.7v8.2l16,2.4v127.6l-17.2,1.8v8.6Zm60.6-75.8H527.5q-10.8,0-14.4-.2v-63.2q1.4,0,6.2-.4a118.246,118.246,0,0,1,13.8-.8q20.4,0,28.6,8.1t8.2,22.7q0,16.6-8,25.2t-21.8,8.6h0Zm91.6,65.4-17,1.8v8.6h50v-8.6l-19.6-1.8,8.2-91.2,4-40,13,38.8,34,95.6h8l36.2-106.8,8.8-27.6,4.4,40,9.2,91.2-18.6,1.8v8.6h53.8v-8.6l-18.2-2-15.8-127.2,22-2.2v-8.6H747.3l-30.8,92.4-6.6,26.8-7.4-26.8-31-92.4H624.3v8.6l22.2,2.2Z"/>
</svg>
